<svg xmlns="http://www.w3.org/2000/svg" xmlns:xlink="http://www.w3.org/1999/xlink" width="500" zoomAndPan="magnify" viewBox="0 0 375 374.999991" height="500" preserveAspectRatio="xMidYMid meet" version="1.0"><defs><g/><clipPath id="d2a59dc720"><path d="M 100 78 L 122 78 L 122 99 L 100 99 Z M 100 78 " clip-rule="nonzero"/></clipPath><clipPath id="114aaec7c8"><path d="M 119.941406 100.007812 L 99.429688 97.707031 L 101.726562 77.195312 L 122.238281 79.496094 Z M 119.941406 100.007812 " clip-rule="nonzero"/></clipPath><clipPath id="51851368a9"><path d="M 109.683594 98.859375 L 107.203125 91.5 L 100.578125 87.453125 L 107.9375 84.972656 L 111.984375 78.34375 L 114.460938 85.703125 L 121.089844 89.75 L 113.730469 92.230469 Z M 109.683594 98.859375 " clip-rule="nonzero"/></clipPath><clipPath id="1d2df0c60f"><path d="M 0.558594 0.238281 L 21.199219 0.238281 L 21.199219 20.878906 L 0.558594 20.878906 Z M 0.558594 0.238281 " clip-rule="nonzero"/></clipPath><clipPath id="d78209ab4c"><path d="M 19.941406 22.007812 L -0.570312 19.707031 L 1.726562 -0.804688 L 22.238281 1.496094 Z M 19.941406 22.007812 " clip-rule="nonzero"/></clipPath><clipPath id="f6931c836e"><path d="M 9.683594 20.859375 L 7.203125 13.5 L 0.578125 9.453125 L 7.9375 6.972656 L 11.984375 0.34375 L 14.460938 7.703125 L 21.089844 11.75 L 13.730469 14.230469 Z M 9.683594 20.859375 " clip-rule="nonzero"/></clipPath><clipPath id="4873623349"><rect x="0" width="22" y="0" height="21"/></clipPath><clipPath id="ed5f4312ff"><path d="M 280 166 L 301 166 L 301 188 L 280 188 Z M 280 166 " clip-rule="nonzero"/></clipPath><clipPath id="8ea0d0b4b9"><path d="M 299.359375 188.464844 L 278.847656 186.167969 L 281.148438 165.65625 L 301.660156 167.953125 Z M 299.359375 188.464844 " clip-rule="nonzero"/></clipPath><clipPath id="ab4cfc762f"><path d="M 289.105469 187.316406 L 286.625 179.957031 L 280 175.910156 L 287.355469 173.429688 L 291.402344 166.804688 L 293.882812 174.164062 L 300.511719 178.210938 L 293.152344 180.691406 Z M 289.105469 187.316406 " clip-rule="nonzero"/></clipPath><clipPath id="e5127c2756"><path d="M 0 0.800781 L 20.71875 0.800781 L 20.71875 21.441406 L 0 21.441406 Z M 0 0.800781 " clip-rule="nonzero"/></clipPath><clipPath id="c1f238b102"><path d="M 19.359375 22.464844 L -1.152344 20.167969 L 1.148438 -0.34375 L 21.660156 1.953125 Z M 19.359375 22.464844 " clip-rule="nonzero"/></clipPath><clipPath id="664e5c9700"><path d="M 9.105469 21.316406 L 6.625 13.957031 L 0 9.910156 L 7.355469 7.429688 L 11.402344 0.804688 L 13.882812 8.164062 L 20.511719 12.210938 L 13.152344 14.691406 Z M 9.105469 21.316406 " clip-rule="nonzero"/></clipPath><clipPath id="1259947db2"><rect x="0" width="21" y="0" height="22"/></clipPath><clipPath id="5611b96277"><path d="M 111 257 L 133 257 L 133 278 L 111 278 Z M 111 257 " clip-rule="nonzero"/></clipPath><clipPath id="c2e22f8254"><path d="M 131.34375 278.890625 L 110.832031 276.59375 L 113.132812 256.082031 L 133.644531 258.378906 Z M 131.34375 278.890625 " clip-rule="nonzero"/></clipPath><clipPath id="129f5e8c4f"><path d="M 121.089844 277.742188 L 118.609375 270.382812 L 111.984375 266.335938 L 119.339844 263.855469 L 123.386719 257.230469 L 125.867188 264.585938 L 132.496094 268.632812 L 125.136719 271.113281 Z M 121.089844 277.742188 " clip-rule="nonzero"/></clipPath><clipPath id="dd97da7c36"><path d="M 0.839844 0.0390625 L 21.71875 0.0390625 L 21.71875 20.921875 L 0.839844 20.921875 Z M 0.839844 0.0390625 " clip-rule="nonzero"/></clipPath><clipPath id="8d9d6a0d94"><path d="M 20.34375 21.890625 L -0.167969 19.59375 L 2.132812 -0.917969 L 22.644531 1.378906 Z M 20.34375 21.890625 " clip-rule="nonzero"/></clipPath><clipPath id="907f6549cb"><path d="M 10.089844 20.742188 L 7.609375 13.382812 L 0.984375 9.335938 L 8.339844 6.855469 L 12.386719 0.230469 L 14.867188 7.585938 L 21.496094 11.632812 L 14.136719 14.113281 Z M 10.089844 20.742188 " clip-rule="nonzero"/></clipPath><clipPath id="7762ccba1d"><rect x="0" width="22" y="0" height="21"/></clipPath><clipPath id="e5ccccd07b"><path d="M 94 84 L 264 84 L 264 254 L 94 254 Z M 94 84 " clip-rule="nonzero"/></clipPath><clipPath id="7b5316559d"><path d="M 296.941406 192.078125 L 156.449219 286.90625 L 61.625 146.414062 L 202.117188 51.585938 Z M 296.941406 192.078125 " clip-rule="nonzero"/></clipPath><clipPath id="ed79bea50d"><path d="M 296.941406 192.078125 L 156.449219 286.90625 L 61.625 146.414062 L 202.117188 51.585938 Z M 296.941406 192.078125 " clip-rule="nonzero"/></clipPath><clipPath id="f811744c1d"><path d="M 296.890625 192.003906 L 156.652344 286.660156 L 61.761719 146.070312 L 202 51.414062 Z M 296.890625 192.003906 " clip-rule="nonzero"/></clipPath></defs><g fill="#000000" fill-opacity="1"><g transform="translate(167.363734, 64.021269)"><g/></g></g><g fill="#000000" fill-opacity="1"><g transform="translate(176.896106, 63.297924)"><g><path d="M 2.6875 -6.09375 L 7.1875 -5.90625 C 9.207031 -5.820312 10.25 -6.597656 10.3125 -8.234375 C 10.382812 -9.867188 9.410156 -10.726562 7.390625 -10.8125 L 2.890625 -11 Z M 0.84375 0.03125 L 1.359375 -12.546875 L 7.6875 -12.28125 C 9.039062 -12.226562 10.09375 -11.832031 10.84375 -11.09375 C 11.59375 -10.363281 11.941406 -9.390625 11.890625 -8.171875 C 11.847656 -6.953125 11.421875 -6.003906 10.609375 -5.328125 C 9.796875 -4.660156 8.710938 -4.351562 7.359375 -4.40625 L 2.625 -4.609375 L 2.4375 0.09375 Z M 0.84375 0.03125 "/></g></g></g><g fill="#000000" fill-opacity="1"><g transform="translate(195.004245, 64.535194)"><g><path d="M 0.828125 0.171875 L 3.46875 -12.140625 L 10.046875 -10.71875 C 11.335938 -10.4375 12.273438 -9.890625 12.859375 -9.078125 C 13.453125 -8.273438 13.628906 -7.296875 13.390625 -6.140625 C 13.171875 -5.128906 12.71875 -4.375 12.03125 -3.875 C 11.351562 -3.375 10.492188 -3.160156 9.453125 -3.234375 L 12.234375 2.59375 L 12.234375 2.625 L 10.25 2.203125 L 7.609375 -3.5625 L 3.453125 -4.453125 L 2.390625 0.515625 Z M 3.765625 -5.890625 L 8.5625 -4.859375 C 9.488281 -4.660156 10.222656 -4.679688 10.765625 -4.921875 C 11.304688 -5.171875 11.664062 -5.691406 11.84375 -6.484375 C 12.007812 -7.265625 11.890625 -7.878906 11.484375 -8.328125 C 11.085938 -8.785156 10.429688 -9.113281 9.515625 -9.3125 L 4.71875 -10.34375 Z M 3.765625 -5.890625 "/></g></g></g><g fill="#000000" fill-opacity="1"><g transform="translate(213.239696, 69.054225)"><g><path d="M 0.78125 0.3125 L 5.421875 -11.390625 L 14.09375 -7.953125 L 13.546875 -6.578125 L 6.359375 -9.421875 L 4.875 -5.65625 L 11.09375 -3.203125 L 10.546875 -1.828125 L 4.328125 -4.28125 L 2.8125 -0.46875 L 10.125 2.421875 L 9.578125 3.796875 Z M 0.78125 0.3125 "/></g></g></g><g fill="#000000" fill-opacity="1"><g transform="translate(228.918096, 75.766265)"><g><path d="M 5.28125 -4.046875 L 9.140625 -1.71875 C 10.878906 -0.675781 12.171875 -0.859375 13.015625 -2.265625 C 13.859375 -3.671875 13.410156 -4.894531 11.671875 -5.9375 L 7.8125 -8.265625 Z M 0.71875 0.4375 L 7.203125 -10.359375 L 12.625 -7.109375 C 13.789062 -6.410156 14.53125 -5.554688 14.84375 -4.546875 C 15.15625 -3.535156 14.992188 -2.503906 14.359375 -1.453125 C 13.734375 -0.410156 12.898438 0.207031 11.859375 0.40625 C 10.828125 0.601562 9.726562 0.351562 8.5625 -0.34375 L 4.515625 -2.78125 L 2.09375 1.25 Z M 0.71875 0.4375 "/></g></g></g><g fill="#000000" fill-opacity="1"><g transform="translate(244.210717, 85.548521)"><g><path d="M 9.828125 2.4375 L 12.015625 -4.375 L 12 -4.40625 L 5.546875 -1.25 Z M -0.203125 -0.171875 L 12.21875 -6.078125 L 13.703125 -4.796875 L 9.640625 8.3125 L 8.3125 7.15625 L 9.34375 3.984375 L 4.109375 -0.515625 L 1.09375 0.9375 Z M -0.203125 -0.171875 "/></g></g></g><g fill="#000000" fill-opacity="1"><g transform="translate(257.961127, 98.100379)"><g><path d="M 0.53125 0.65625 L 10.28125 -7.328125 L 14.546875 -2.125 C 15.390625 -1.09375 15.785156 -0.0742188 15.734375 0.921875 C 15.691406 1.921875 15.210938 2.789062 14.296875 3.53125 C 13.492188 4.1875 12.671875 4.5 11.828125 4.46875 C 10.984375 4.4375 10.175781 4.070312 9.40625 3.375 L 7.953125 9.671875 L 7.921875 9.6875 L 6.640625 8.109375 L 8.171875 1.96875 L 5.46875 -1.328125 L 1.546875 1.890625 Z M 6.609375 -2.25 L 9.71875 1.546875 C 10.320312 2.285156 10.910156 2.726562 11.484375 2.875 C 12.066406 3.019531 12.671875 2.832031 13.296875 2.3125 C 13.910156 1.8125 14.203125 1.257812 14.171875 0.65625 C 14.148438 0.0507812 13.84375 -0.613281 13.25 -1.34375 L 10.140625 -5.140625 Z M 6.609375 -2.25 "/></g></g></g><g fill="#000000" fill-opacity="1"><g transform="translate(269.401909, 113.003493)"><g><path d="M 0.421875 0.734375 L 11.34375 -5.515625 L 15.96875 2.578125 L 14.6875 3.3125 L 10.859375 -3.40625 L 7.34375 -1.40625 L 10.65625 4.40625 L 9.375 5.15625 L 6.0625 -0.65625 L 2.5 1.375 L 6.40625 8.21875 L 5.125 8.953125 Z M 0.421875 0.734375 "/></g></g></g><g fill="#000000" fill-opacity="1"><g transform="translate(277.407023, 128.265077)"><g/></g></g><g fill="#000000" fill-opacity="1"><g transform="translate(280.885523, 137.36604)"><g/></g></g><g fill="#000000" fill-opacity="1"><g transform="translate(283.529235, 146.743792)"><g/></g></g><g fill="#000000" fill-opacity="1"><g transform="translate(285.315303, 156.321776)"><g/></g></g><g fill="#000000" fill-opacity="1"><g transform="translate(286.230253, 166.022291)"><g/></g></g><g fill="#000000" fill-opacity="1"><g transform="translate(286.265001, 175.76513)"><g/></g></g><g fill="#000000" fill-opacity="1"><g transform="translate(285.420609, 185.47156)"><g/></g></g><g fill="#000000" fill-opacity="1"><g transform="translate(283.703284, 195.062553)"><g/></g></g><g fill="#000000" fill-opacity="1"><g transform="translate(281.127815, 204.458966)"><g/></g></g><g fill="#000000" fill-opacity="1"><g transform="translate(277.714414, 213.58518)"><g/></g></g><g fill="#000000" fill-opacity="1"><g transform="translate(273.721675, 222.265992)"><g><path d="M 4.015625 5.296875 L 1.671875 9.140625 C 0.617188 10.878906 0.789062 12.175781 2.1875 13.03125 C 3.59375 13.882812 4.820312 13.441406 5.875 11.703125 L 8.21875 7.859375 Z M -0.4375 0.71875 L 10.3125 7.265625 L 7.015625 12.671875 C 6.316406 13.828125 5.460938 14.554688 4.453125 14.859375 C 3.441406 15.171875 2.410156 15.007812 1.359375 14.375 C 0.316406 13.738281 -0.296875 12.898438 -0.484375 11.859375 C -0.671875 10.828125 -0.414062 9.734375 0.28125 8.578125 L 2.75 4.53125 L -1.265625 2.078125 Z M -0.4375 0.71875 "/></g></g></g><g fill="#000000" fill-opacity="1"><g transform="translate(263.850432, 237.502191)"><g><path d="M -0.5625 0.640625 L 8.921875 8.921875 L 4.5 13.984375 C 3.625 14.984375 2.6875 15.539062 1.6875 15.65625 C 0.695312 15.78125 -0.238281 15.457031 -1.125 14.6875 C -1.90625 14 -2.347656 13.234375 -2.453125 12.390625 C -2.554688 11.554688 -2.328125 10.707031 -1.765625 9.84375 L -8.203125 9.4375 L -8.234375 9.421875 L -6.90625 7.890625 L -0.578125 8.390625 L 2.21875 5.171875 L -1.609375 1.828125 Z M 3.3125 6.140625 L 0.078125 9.859375 C -0.546875 10.566406 -0.878906 11.21875 -0.921875 11.8125 C -0.960938 12.40625 -0.679688 12.96875 -0.078125 13.5 C 0.523438 14.019531 1.117188 14.21875 1.703125 14.09375 C 2.296875 13.96875 2.898438 13.554688 3.515625 12.859375 L 6.75 9.140625 Z M 3.3125 6.140625 "/></g></g></g><g fill="#000000" fill-opacity="1"><g transform="translate(251.151089, 251.274596)"><g><path d="M 2.359375 6.15625 C 1.734375 5.382812 1.023438 4.832031 0.234375 4.5 C -0.554688 4.164062 -1.367188 4.0625 -2.203125 4.1875 C -3.035156 4.3125 -3.832031 4.675781 -4.59375 5.28125 C -5.34375 5.882812 -5.875 6.578125 -6.1875 7.359375 C -6.5 8.148438 -6.582031 8.96875 -6.4375 9.8125 C -6.289062 10.664062 -5.90625 11.476562 -5.28125 12.25 C -4.65625 13.03125 -3.941406 13.585938 -3.140625 13.921875 C -2.347656 14.253906 -1.535156 14.359375 -0.703125 14.234375 C 0.128906 14.117188 0.921875 13.757812 1.671875 13.15625 C 2.429688 12.550781 2.96875 11.851562 3.28125 11.0625 C 3.59375 10.269531 3.671875 9.445312 3.515625 8.59375 C 3.367188 7.75 2.984375 6.9375 2.359375 6.15625 Z M 3.59375 5.1875 C 4.40625 6.195312 4.90625 7.253906 5.09375 8.359375 C 5.28125 9.460938 5.164062 10.523438 4.75 11.546875 C 4.332031 12.566406 3.628906 13.472656 2.640625 14.265625 C 1.628906 15.078125 0.574219 15.570312 -0.515625 15.75 C -1.617188 15.9375 -2.691406 15.816406 -3.734375 15.390625 C -4.773438 14.972656 -5.703125 14.257812 -6.515625 13.25 C -7.316406 12.238281 -7.804688 11.175781 -7.984375 10.0625 C -8.160156 8.957031 -8.039062 7.890625 -7.625 6.859375 C -7.207031 5.828125 -6.492188 4.90625 -5.484375 4.09375 C -4.492188 3.300781 -3.445312 2.816406 -2.34375 2.640625 C -1.25 2.472656 -0.183594 2.601562 0.84375 3.03125 C 1.875 3.457031 2.789062 4.175781 3.59375 5.1875 Z M 3.59375 5.1875 "/></g></g></g><g fill="#000000" fill-opacity="1"><g transform="translate(235.268649, 263.218831)"><g><path d="M 2.59375 5.765625 C 3.195312 6.898438 3.492188 8.023438 3.484375 9.140625 C 3.472656 10.253906 3.175781 11.273438 2.59375 12.203125 C 2.007812 13.128906 1.160156 13.890625 0.046875 14.484375 C -0.910156 15.003906 -1.878906 15.285156 -2.859375 15.328125 C -3.835938 15.367188 -4.757812 15.1875 -5.625 14.78125 C -6.488281 14.375 -7.25 13.742188 -7.90625 12.890625 L -6.703125 11.875 C -6.203125 12.539062 -5.617188 13.035156 -4.953125 13.359375 C -4.285156 13.679688 -3.585938 13.832031 -2.859375 13.8125 C -2.140625 13.800781 -1.421875 13.601562 -0.703125 13.21875 C 0.136719 12.769531 0.773438 12.179688 1.203125 11.453125 C 1.640625 10.722656 1.863281 9.929688 1.875 9.078125 C 1.894531 8.222656 1.664062 7.359375 1.1875 6.484375 C 0.726562 5.617188 0.136719 4.945312 -0.578125 4.46875 C -1.304688 3.988281 -2.085938 3.734375 -2.921875 3.703125 C -3.753906 3.671875 -4.59375 3.878906 -5.4375 4.328125 C -6.207031 4.734375 -6.800781 5.253906 -7.21875 5.890625 C -7.632812 6.523438 -7.875 7.226562 -7.9375 8 C -8.007812 8.78125 -7.875 9.585938 -7.53125 10.421875 L -9.078125 10.859375 C -9.484375 9.804688 -9.628906 8.78125 -9.515625 7.78125 C -9.410156 6.78125 -9.066406 5.867188 -8.484375 5.046875 C -7.898438 4.222656 -7.109375 3.546875 -6.109375 3.015625 C -4.992188 2.421875 -3.882812 2.140625 -2.78125 2.171875 C -1.675781 2.203125 -0.65625 2.523438 0.28125 3.140625 C 1.21875 3.765625 1.988281 4.640625 2.59375 5.765625 Z M 2.59375 5.765625 "/></g></g></g><g fill="#000000" fill-opacity="1"><g transform="translate(217.598175, 271.925914)"><g><path d="M -0.796875 0.265625 L 3.171875 12.21875 L -5.6875 15.15625 L -6.15625 13.75 L 1.1875 11.3125 L -0.09375 7.46875 L -6.4375 9.578125 L -6.90625 8.171875 L -0.5625 6.0625 L -1.84375 2.171875 L -9.3125 4.65625 L -9.78125 3.25 Z M -0.796875 0.265625 "/></g></g></g><g fill="#000000" fill-opacity="1"><g transform="translate(201.263396, 276.840384)"><g><path d="M 0.5 4.265625 L -0.96875 4.890625 C -1.457031 3.878906 -2.109375 3.132812 -2.921875 2.65625 C -3.742188 2.1875 -4.753906 2.046875 -5.953125 2.234375 C -7.066406 2.410156 -7.875 2.769531 -8.375 3.3125 C -8.875 3.863281 -9.078125 4.441406 -8.984375 5.046875 C -8.910156 5.515625 -8.695312 5.84375 -8.34375 6.03125 C -7.988281 6.226562 -7.550781 6.351562 -7.03125 6.40625 C -6.519531 6.46875 -5.976562 6.5 -5.40625 6.5 L -4.328125 6.53125 C -3.859375 6.53125 -3.351562 6.550781 -2.8125 6.59375 C -2.28125 6.644531 -1.757812 6.742188 -1.25 6.890625 C -0.738281 7.046875 -0.300781 7.300781 0.0625 7.65625 C 0.425781 8.007812 0.65625 8.503906 0.75 9.140625 C 0.875 9.859375 0.769531 10.519531 0.4375 11.125 C 0.113281 11.738281 -0.378906 12.253906 -1.046875 12.671875 C -1.722656 13.085938 -2.515625 13.367188 -3.421875 13.515625 C -4.722656 13.722656 -5.910156 13.566406 -6.984375 13.046875 C -8.066406 12.535156 -8.925781 11.640625 -9.5625 10.359375 L -8.109375 9.734375 C -7.609375 10.742188 -6.972656 11.421875 -6.203125 11.765625 C -5.441406 12.109375 -4.601562 12.207031 -3.6875 12.0625 C -2.695312 11.90625 -1.945312 11.570312 -1.4375 11.0625 C -0.925781 10.550781 -0.71875 10 -0.8125 9.40625 C -0.882812 8.957031 -1.09375 8.632812 -1.4375 8.4375 C -1.789062 8.25 -2.222656 8.128906 -2.734375 8.078125 C -3.242188 8.023438 -3.765625 7.992188 -4.296875 7.984375 L -5.34375 7.953125 C -5.875 7.941406 -6.421875 7.914062 -6.984375 7.875 C -7.554688 7.84375 -8.09375 7.742188 -8.59375 7.578125 C -9.09375 7.421875 -9.515625 7.164062 -9.859375 6.8125 C -10.210938 6.457031 -10.441406 5.957031 -10.546875 5.3125 C -10.660156 4.5625 -10.554688 3.867188 -10.234375 3.234375 C -9.910156 2.597656 -9.40625 2.066406 -8.71875 1.640625 C -8.039062 1.222656 -7.21875 0.9375 -6.25 0.78125 C -5.238281 0.613281 -4.289062 0.640625 -3.40625 0.859375 C -2.53125 1.085938 -1.757812 1.492188 -1.09375 2.078125 C -0.4375 2.660156 0.09375 3.390625 0.5 4.265625 Z M 0.5 4.265625 "/></g></g></g><g fill="#000000" fill-opacity="1"><g transform="translate(183.685211, 279.138771)"><g><path d="M -0.203125 4.28125 L -1.75 4.671875 C -2.070312 3.585938 -2.597656 2.742188 -3.328125 2.140625 C -4.054688 1.535156 -5.023438 1.234375 -6.234375 1.234375 C -7.359375 1.222656 -8.210938 1.445312 -8.796875 1.90625 C -9.390625 2.363281 -9.6875 2.898438 -9.6875 3.515625 C -9.695312 3.984375 -9.539062 4.34375 -9.21875 4.59375 C -8.90625 4.84375 -8.5 5.035156 -8 5.171875 C -7.5 5.304688 -6.960938 5.425781 -6.390625 5.53125 L -5.328125 5.734375 C -4.867188 5.804688 -4.375 5.910156 -3.84375 6.046875 C -3.320312 6.179688 -2.820312 6.363281 -2.34375 6.59375 C -1.875 6.832031 -1.488281 7.15625 -1.1875 7.5625 C -0.894531 7.976562 -0.75 8.503906 -0.75 9.140625 C -0.757812 9.867188 -0.972656 10.503906 -1.390625 11.046875 C -1.804688 11.597656 -2.378906 12.023438 -3.109375 12.328125 C -3.835938 12.628906 -4.660156 12.773438 -5.578125 12.765625 C -6.898438 12.753906 -8.050781 12.40625 -9.03125 11.71875 C -10.007812 11.039062 -10.707031 10.019531 -11.125 8.65625 L -9.59375 8.28125 C -9.269531 9.351562 -8.757812 10.125 -8.0625 10.59375 C -7.363281 11.0625 -6.546875 11.296875 -5.609375 11.296875 C -4.609375 11.304688 -3.816406 11.097656 -3.234375 10.671875 C -2.648438 10.253906 -2.351562 9.742188 -2.34375 9.140625 C -2.34375 8.691406 -2.5 8.34375 -2.8125 8.09375 C -3.125 7.84375 -3.523438 7.648438 -4.015625 7.515625 C -4.515625 7.378906 -5.023438 7.265625 -5.546875 7.171875 L -6.578125 6.984375 C -7.097656 6.878906 -7.632812 6.757812 -8.1875 6.625 C -8.738281 6.5 -9.25 6.316406 -9.71875 6.078125 C -10.1875 5.835938 -10.5625 5.515625 -10.84375 5.109375 C -11.132812 4.703125 -11.273438 4.171875 -11.265625 3.515625 C -11.265625 2.753906 -11.050781 2.085938 -10.625 1.515625 C -10.195312 0.941406 -9.613281 0.5 -8.875 0.1875 C -8.132812 -0.113281 -7.273438 -0.257812 -6.296875 -0.25 C -5.273438 -0.25 -4.347656 -0.0664062 -3.515625 0.296875 C -2.679688 0.660156 -1.984375 1.179688 -1.421875 1.859375 C -0.859375 2.546875 -0.453125 3.351562 -0.203125 4.28125 Z M -0.203125 4.28125 "/></g></g></g><g fill="#000000" fill-opacity="1"><g transform="translate(165.799615, 278.369285)"><g/></g></g><g fill="#000000" fill-opacity="1"><g transform="translate(156.185963, 276.783739)"><g/></g></g><g fill="#000000" fill-opacity="1"><g transform="translate(146.754911, 274.33788)"><g/></g></g><g fill="#000000" fill-opacity="1"><g transform="translate(137.582953, 271.049841)"><g/></g></g><g fill="#000000" fill-opacity="1"><g transform="translate(128.745715, 266.948152)"><g/></g></g><g fill="#000000" fill-opacity="1"><g transform="translate(120.314109, 262.065653)"><g/></g></g><g fill="#000000" fill-opacity="1"><g transform="translate(112.357877, 256.441124)"><g/></g></g><g fill="#000000" fill-opacity="1"><g transform="translate(104.941713, 250.122799)"><g/></g></g><g fill="#000000" fill-opacity="1"><g transform="translate(98.125576, 243.159783)"><g/></g></g><g fill="#000000" fill-opacity="1"><g transform="translate(91.966963, 235.610229)"><g/></g></g><g fill="#000000" fill-opacity="1"><g transform="translate(86.485188, 227.779959)"><g><path d="M -6.59375 0.796875 L -8.734375 -3.171875 C -9.703125 -4.953125 -10.910156 -5.453125 -12.359375 -4.671875 C -13.804688 -3.890625 -14.046875 -2.609375 -13.078125 -0.828125 L -10.9375 3.140625 Z M -0.40625 -0.75 L -11.484375 5.234375 L -14.484375 -0.328125 C -15.128906 -1.515625 -15.328125 -2.617188 -15.078125 -3.640625 C -14.835938 -4.671875 -14.179688 -5.476562 -13.109375 -6.0625 C -12.035156 -6.644531 -11 -6.753906 -10 -6.390625 C -9.007812 -6.035156 -8.191406 -5.265625 -7.546875 -4.078125 L -5.296875 0.09375 L -1.15625 -2.140625 Z M -0.40625 -0.75 "/></g></g></g><g fill="#000000" fill-opacity="1"><g transform="translate(78.305089, 211.576644)"><g><path d="M -0.265625 -0.796875 L -12.203125 3.21875 L -14.34375 -3.171875 C -14.769531 -4.421875 -14.785156 -5.503906 -14.390625 -6.421875 C -13.992188 -7.347656 -13.238281 -8 -12.125 -8.375 C -11.132812 -8.707031 -10.25 -8.707031 -9.46875 -8.375 C -8.695312 -8.039062 -8.070312 -7.410156 -7.59375 -6.484375 L -4.015625 -11.84375 L -3.984375 -11.859375 L -3.34375 -9.9375 L -6.953125 -4.75 L -5.59375 -0.703125 L -0.78125 -2.3125 Z M -6.984375 -0.234375 L -8.546875 -4.90625 C -8.847656 -5.800781 -9.242188 -6.414062 -9.734375 -6.75 C -10.222656 -7.09375 -10.851562 -7.132812 -11.625 -6.875 C -12.375 -6.625 -12.84375 -6.210938 -13.03125 -5.640625 C -13.226562 -5.066406 -13.175781 -4.335938 -12.875 -3.453125 L -11.3125 1.21875 Z M -6.984375 -0.234375 "/></g></g></g><g fill="#000000" fill-opacity="1"><g transform="translate(72.971683, 193.392006)"><g><path d="M -0.15625 -0.84375 L -12.515625 1.546875 L -12.828125 -0.015625 L -0.46875 -2.40625 Z M -0.15625 -0.84375 "/></g></g></g><g fill="#000000" fill-opacity="1"><g transform="translate(71.242051, 183.887307)"><g><path d="M -0.046875 -0.84375 L -12.625 -0.125 L -12.75 -2.171875 L -2.78125 -10.25 L -2.78125 -10.28125 L -13.171875 -9.6875 L -13.265625 -11.21875 L -0.6875 -11.9375 L -0.578125 -10.078125 L -10.78125 -1.796875 L -10.78125 -1.765625 L -0.140625 -2.375 Z M -0.046875 -0.84375 "/></g></g></g><g fill="#000000" fill-opacity="1"><g transform="translate(70.734949, 164.924476)"><g><path d="M 0.53125 -4.78125 L -10.515625 -6.015625 L -11.015625 -1.46875 L -12.484375 -1.625 L -11.296875 -12.296875 L -9.828125 -12.140625 L -10.34375 -7.578125 L 0.703125 -6.34375 Z M 0.53125 -4.78125 "/></g></g></g><g clip-path="url(#d2a59dc720)"><g clip-path="url(#114aaec7c8)"><g clip-path="url(#51851368a9)"><g transform="matrix(1, 0, 0, 1, 100, 78)"><g clip-path="url(#4873623349)"><g clip-path="url(#1d2df0c60f)"><g clip-path="url(#d78209ab4c)"><g clip-path="url(#f6931c836e)"><path fill="#ffffff" d="M 19.941406 22.007812 L -0.570312 19.707031 L 1.726562 -0.804688 L 22.238281 1.496094 Z M 19.941406 22.007812 " fill-opacity="1" fill-rule="nonzero"/></g></g></g></g></g></g></g></g><g clip-path="url(#ed5f4312ff)"><g clip-path="url(#8ea0d0b4b9)"><g clip-path="url(#ab4cfc762f)"><g transform="matrix(1, 0, 0, 1, 280, 166)"><g clip-path="url(#1259947db2)"><g clip-path="url(#e5127c2756)"><g clip-path="url(#c1f238b102)"><g clip-path="url(#664e5c9700)"><path fill="#ffffff" d="M 19.359375 22.464844 L -1.152344 20.167969 L 1.148438 -0.34375 L 21.660156 1.953125 Z M 19.359375 22.464844 " fill-opacity="1" fill-rule="nonzero"/></g></g></g></g></g></g></g></g><g clip-path="url(#5611b96277)"><g clip-path="url(#c2e22f8254)"><g clip-path="url(#129f5e8c4f)"><g transform="matrix(1, 0, 0, 1, 111, 257)"><g clip-path="url(#7762ccba1d)"><g clip-path="url(#dd97da7c36)"><g clip-path="url(#8d9d6a0d94)"><g clip-path="url(#907f6549cb)"><path fill="#ffffff" d="M 20.34375 21.890625 L -0.167969 19.59375 L 2.132812 -0.917969 L 22.644531 1.378906 Z M 20.34375 21.890625 " fill-opacity="1" fill-rule="nonzero"/></g></g></g></g></g></g></g></g><g clip-path="url(#e5ccccd07b)"><g clip-path="url(#7b5316559d)"><g clip-path="url(#ed79bea50d)"><g clip-path="url(#f811744c1d)"><path fill="#004653" d="M 127.105469 198.234375 C 127.980469 199.648438 128.882812 201.058594 129.820312 202.453125 C 136.511719 212.363281 144.421875 220.992188 153.09375 227.957031 L 136.953125 238.851562 C 127.152344 232.921875 118.449219 224.835938 111.628906 214.730469 C 110.6875 213.335938 109.792969 211.917969 108.949219 210.484375 Z M 97.691406 167.9375 L 111.871094 158.367188 C 113.910156 171.082031 118.683594 184.019531 125.867188 196.183594 L 107.761719 208.40625 C 100.753906 195.679688 97.484375 181.726562 97.691406 167.9375 Z M 116.503906 116.847656 C 112.894531 124.390625 110.917969 133.285156 110.75 143.164062 C 110.679688 147.300781 110.933594 151.507812 111.488281 155.742188 L 97.785156 164.992188 C 98.667969 147.578125 105.09375 130.589844 116.503906 116.847656 Z M 127.609375 105.816406 C 126.386719 111.496094 127.398438 119.773438 130.6875 130.128906 C 131.722656 133.390625 132.964844 136.789062 134.382812 140.289062 L 113.726562 154.230469 C 111.570312 135.980469 115.390625 119.265625 125.132812 107.9375 C 125.941406 107.21875 126.765625 106.507812 127.609375 105.816406 Z M 131.058594 103.160156 C 131.902344 102.542969 132.757812 101.933594 133.632812 101.339844 C 134.507812 100.75 135.394531 100.1875 136.28125 99.636719 C 141.65625 98.980469 149.992188 103.019531 159.910156 111.21875 C 162.382812 113.265625 164.902344 115.523438 167.449219 117.96875 L 136.40625 138.925781 C 135.089844 135.648438 133.9375 132.464844 132.964844 129.40625 C 129.070312 117.140625 128.441406 107.898438 131.058594 103.160156 Z M 142.929688 95.925781 C 157.078125 91.128906 174.007812 93.835938 190.125 102.664062 L 169.476562 116.601562 C 166.757812 113.980469 164.070312 111.558594 161.429688 109.378906 C 153.058594 102.453125 145.761719 98.417969 140.035156 97.429688 C 140.992188 96.90625 141.960938 96.40625 142.929688 95.925781 Z M 206.070312 91.902344 L 192.367188 101.152344 C 188.648438 99.050781 184.839844 97.242188 180.980469 95.761719 C 171.757812 92.222656 162.765625 90.730469 154.421875 91.253906 C 171.429688 85.816406 189.589844 86.210938 206.070312 91.902344 Z M 242.601562 117.394531 L 224.496094 129.613281 C 215.902344 118.402344 205.6875 109.136719 194.65625 102.488281 L 208.835938 92.917969 C 221.703125 97.882812 233.421875 106.132812 242.601562 117.394531 Z M 247.023438 123.34375 C 253.84375 133.449219 258.089844 144.542969 259.917969 155.855469 L 243.78125 166.746094 C 240.5625 156.101562 235.515625 145.535156 228.828125 135.625 C 227.886719 134.234375 226.921875 132.867188 225.933594 131.527344 L 244.089844 119.273438 C 245.101562 120.589844 246.082031 121.949219 247.023438 123.34375 Z M 242.136719 221.257812 C 245.75 213.707031 247.730469 204.800781 247.902344 194.910156 C 248.042969 186.507812 246.867188 177.824219 244.476562 169.160156 L 260.300781 158.476562 C 263.171875 180.78125 256.734375 203.679688 242.136719 221.257812 Z M 231.039062 232.253906 C 232.265625 226.574219 231.25 218.296875 227.960938 207.949219 C 225.824219 201.207031 222.828125 193.890625 219.125 186.269531 L 242.359375 170.585938 C 248.566406 193.835938 245.578125 216.140625 233.496094 230.167969 C 232.695312 230.878906 231.875 231.570312 231.039062 232.253906 Z M 227.585938 234.925781 C 226.746094 235.542969 225.890625 236.148438 225.019531 236.734375 C 224.148438 237.324219 223.265625 237.890625 222.378906 238.441406 C 217.007812 239.105469 208.667969 235.0625 198.742188 226.859375 C 193.445312 222.480469 187.945312 217.136719 182.421875 211.046875 L 217.128906 187.621094 C 220.707031 195.023438 223.605469 202.125 225.683594 208.671875 C 229.582031 220.941406 230.210938 230.191406 227.585938 234.925781 Z M 215.757812 242.140625 C 198.226562 248.101562 176.425781 242.53125 157.183594 228.078125 L 180.421875 212.394531 C 186.101562 218.679688 191.769531 224.191406 197.21875 228.699219 C 205.589844 235.617188 212.882812 239.65625 218.609375 240.644531 C 217.667969 241.164062 216.714844 241.664062 215.757812 242.140625 Z M 155.167969 179.289062 C 156.078125 180.683594 157 182.082031 157.941406 183.472656 C 164.632812 193.386719 171.71875 202.578125 178.8125 210.597656 L 155.191406 226.542969 C 146.621094 219.765625 138.613281 211.210938 131.800781 201.113281 C 130.859375 199.71875 129.957031 198.308594 129.085938 196.894531 Z M 153.878906 177.28125 L 127.851562 194.847656 C 120.511719 182.367188 115.929688 169.3125 114.082031 156.871094 L 135.308594 142.542969 C 139.933594 153.5 146.28125 165.378906 153.878906 177.28125 Z M 194.507812 149.855469 L 155.855469 175.945312 C 148.242188 164.011719 141.90625 152.113281 137.328125 141.179688 L 169.199219 119.671875 C 177.625 128.007812 186.289062 138.332031 194.507812 149.855469 Z M 198.730469 155.941406 C 205.429688 165.871094 211.300781 175.886719 216.066406 185.457031 L 180.808594 209.253906 C 173.71875 201.257812 166.621094 192.066406 159.917969 182.136719 C 158.980469 180.742188 158.058594 179.347656 157.152344 177.953125 L 195.886719 151.808594 C 196.839844 153.171875 197.789062 154.546875 198.730469 155.941406 Z M 196.488281 148.519531 C 188.292969 137.023438 179.644531 126.695312 171.214844 118.308594 L 192.445312 103.980469 C 203.292969 110.347656 213.683594 119.480469 222.511719 130.953125 Z M 197.867188 150.46875 L 223.953125 132.863281 C 224.9375 134.199219 225.90625 135.566406 226.847656 136.960938 C 233.660156 147.058594 238.601562 157.679688 241.679688 168.167969 L 218.0625 184.105469 C 213.277344 174.527344 207.402344 164.519531 200.710938 154.605469 C 199.769531 153.210938 198.820312 151.835938 197.867188 150.46875 Z M 139.246094 240.1875 L 155.070312 229.503906 C 162.210938 234.964844 169.824219 239.304688 177.671875 242.316406 C 186.90625 245.855469 195.910156 247.351562 204.265625 246.820312 C 182.5 253.789062 158.855469 251.191406 139.246094 240.1875 Z M 134.308594 240.71875 C 135.03125 241.171875 135.761719 241.609375 136.496094 242.042969 C 144.65625 246.820312 153.652344 250.234375 163.210938 252.085938 C 183.40625 256.007812 203.890625 252.546875 221.535156 242.355469 C 223.34375 241.476562 225.089844 240.46875 226.773438 239.332031 C 228.453125 238.199219 230.042969 236.953125 231.535156 235.609375 C 247.585938 223.058594 258.457031 205.351562 262.375 185.152344 C 264.230469 175.597656 264.429688 165.976562 263.046875 156.625 C 262.925781 155.78125 262.792969 154.9375 262.640625 154.097656 C 260.589844 142.648438 256.152344 131.644531 249.445312 121.710938 C 239.9375 107.625 226.734375 96.960938 211.335938 90.703125 C 210.601562 90.40625 209.863281 90.121094 209.121094 89.84375 C 204.71875 88.195312 200.148438 86.902344 195.441406 85.988281 C 175.242188 82.070312 154.757812 85.527344 137.113281 95.722656 C 135.308594 96.601562 133.558594 97.609375 131.878906 98.746094 C 130.199219 99.878906 128.613281 101.121094 127.117188 102.46875 C 111.066406 115.019531 100.195312 132.722656 96.277344 152.921875 C 95.363281 157.628906 94.855469 162.351562 94.734375 167.050781 C 94.710938 167.84375 94.703125 168.636719 94.703125 169.425781 C 94.746094 186.046875 99.699219 202.28125 109.207031 216.367188 C 115.910156 226.300781 124.453125 234.535156 134.308594 240.71875 " fill-opacity="1" fill-rule="nonzero"/></g></g></g></g></svg>